<svg class="svg-icon" style="width: 1em; height: 1em;vertical-align: middle;fill: currentColor;overflow: hidden;" viewBox="0 0 1024 1024" version="1.1" xmlns="http://www.w3.org/2000/svg"><path d="M542.988 512l261.63 261.63c8.59 8.591 8.59 22.52 0 31.112-8.592 8.592-22.522 8.592-31.113 0l-261.63-261.63-261.63 261.63c-8.591 8.592-22.52 8.592-31.112 0-8.592-8.591-8.592-22.521 0-31.112L480.763 512l-261.63-261.63c-8.592-8.591-8.592-22.52 0-31.112 8.591-8.592 22.521-8.592 31.112 0l261.63 261.63 261.63-261.63c8.591-8.592 22.52-8.592 31.112 0 8.592 8.591 8.592 22.521 0 31.112L542.987 512z"  /></svg>