<svg width="30" height="30" viewBox="0 0 30 30" fill="none" xmlns="http://www.w3.org/2000/svg">
<rect x="6.55298" y="6.55298" width="16.8507" height="16.8507" rx="3.5" stroke="white" stroke-width="1.5"/>
<path d="M18.7209 14.8547C18.7371 15.3462 18.6564 15.836 18.4833 16.2963C18.3103 16.7566 18.0483 17.1783 17.7122 17.5373C17.3762 17.8964 16.9727 18.1857 16.5249 18.3888C16.0771 18.5919 15.5936 18.7048 15.1021 18.721C14.6106 18.7373 14.1208 18.6566 13.6605 18.4835C13.2002 18.3105 12.7785 18.0485 12.4195 17.7124C12.0604 17.3764 11.7711 16.9729 11.568 16.5251C11.3649 16.0772 11.252 15.5938 11.2357 15.1023C11.2195 14.6108 11.3002 14.121 11.4732 13.6607C11.6463 13.2004 11.9083 12.7787 12.2444 12.4197C12.5804 12.0606 12.9838 11.7713 13.4317 11.5682C13.8795 11.3651 14.363 11.2522 14.8545 11.2359C15.346 11.2197 15.8358 11.3004 16.2961 11.4734C16.7564 11.6465 17.1781 11.9085 17.5371 12.2446C17.8962 12.5806 18.1855 12.984 18.3886 13.4319C18.5917 13.8797 18.7046 14.3632 18.7209 14.8547Z" stroke="white" stroke-width="1.5" stroke-linecap="round" stroke-linejoin="round"/>
<path d="M19.6467 10.2976H19.6592" stroke="white" stroke-width="1.5" stroke-linecap="round" stroke-linejoin="round"/>
</svg>
