<svg width="32" height="32" viewBox="0 0 32 32" fill="none" xmlns="http://www.w3.org/2000/svg">
<path d="M26.0084 7.97811C25.8621 7.82638 25.6358 7.7831 25.4432 7.87165L25.3616 7.90896C25.2925 7.9408 25.2233 7.97264 25.1537 8.00398C25.3562 7.68111 25.5169 7.33586 25.6278 6.97866C25.6895 6.78165 25.6223 6.56624 25.4592 6.43889C25.296 6.31153 25.0711 6.2981 24.8945 6.40605C24.112 6.88165 23.3727 7.17815 22.5683 7.33834L22.1782 7.40451C23.2259 8.17412 23.9095 9.41138 23.9095 10.8113C23.9095 10.8745 23.9065 10.9407 23.905 11.0048L23.9791 10.9451C25.5338 9.64967 26.0731 8.59102 26.0954 8.54674C26.19 8.3572 26.1551 8.12935 26.0084 7.97811Z" fill="white"/>
<path d="M19.6809 6.58313C17.3457 6.58313 15.4523 8.47657 15.4523 10.8118V11.558C9.3869 11.2327 7.74121 7.08062 7.74121 7.08062C7.74121 7.08062 6.99498 8.07559 6.99498 9.56806C6.99498 12.0555 8.98493 13.0505 8.98493 13.0505C7.49246 13.0505 6.49749 12.553 6.49749 12.553C6.49749 12.553 6.74623 15.2892 9.9799 16.5329L7.98995 17.0304C7.98995 17.0304 8.98493 18.7716 11.9699 19.5178C11.9699 19.5178 10.2286 21.0103 6 21.0103C6 21.0103 7.74121 23.0002 12.4673 23.0002C20.6759 23.0002 23.9096 15.2892 23.9096 10.8118C23.9096 8.47657 22.0161 6.58313 19.6809 6.58313Z" stroke="white" stroke-width="1.5" stroke-miterlimit="10" stroke-linejoin="round"/>
</svg>
