<svg width="33" height="20" viewBox="0 0 33 20" fill="none" xmlns="http://www.w3.org/2000/svg">
<g clip-path="url(#clip0_603_327)">
<path d="M0.471429 0C0.212143 0 0 0.214286 0 0.47619C0 0.738095 0.212143 0.952381 0.471429 0.952381H32.5286C32.7879 0.952381 33 0.738095 33 0.47619C33 0.214286 32.7879 0 32.5286 0H0.471429ZM0.471429 9.52381C0.212143 9.52381 0 9.7381 0 10C0 10.2619 0.212143 10.4762 0.471429 10.4762H32.5286C32.7879 10.4762 33 10.2619 33 10C33 9.7381 32.7879 9.52381 32.5286 9.52381H0.471429ZM0.471429 19.0476C0.212143 19.0476 0 19.2619 0 19.5238C0 19.7857 0.212143 20 0.471429 20H32.5286C32.7879 20 33 19.7857 33 19.5238C33 19.2619 32.7879 19.0476 32.5286 19.0476H0.471429Z" fill="white"/>
</g>
<defs>
<clipPath id="clip0_603_327">
<rect width="33" height="20" fill="white"/>
</clipPath>
</defs>
</svg>
