<svg width="101" height="28" viewBox="0 0 101 28" fill="none" xmlns="http://www.w3.org/2000/svg">
<path d="M17.2656 17.2344H7.20703L6.52344 18.9141C5.50781 21.349 5 22.9375 5 23.6797C5 24.474 5.26693 25.0794 5.80078 25.4961C6.34766 25.8997 7.04427 26.1016 7.89062 26.1016V27H0.0195312V26.1016C1.19141 25.9193 2.0638 25.5091 2.63672 24.8711C3.20964 24.2201 3.89974 22.8594 4.70703 20.7891C4.77214 20.5938 5.08464 19.8385 5.64453 18.5234L13.3398 0.144531H14.1016L22.9492 21.1797L24.1602 23.9531C24.4336 24.5781 24.7982 25.0729 25.2539 25.4375C25.7227 25.7891 26.4193 26.0104 27.3438 26.1016V27H16.9336V26.1016C18.2096 26.1016 19.069 26.0104 19.5117 25.8281C19.9674 25.6328 20.1953 25.2552 20.1953 24.6953C20.1953 24.4089 19.8958 23.556 19.2969 22.1367L17.2656 17.2344ZM16.9336 16.3555L12.2461 5.06641L7.57812 16.3555H16.9336ZM33.7695 14.4414C34.2122 13.2826 34.9284 12.3125 35.918 11.5312C36.9206 10.75 37.8971 10.3594 38.8477 10.3594C39.707 10.3594 40.3841 10.6263 40.8789 11.1602C41.3737 11.694 41.6211 12.2409 41.6211 12.8008C41.6211 13.1784 41.4909 13.5039 41.2305 13.7773C40.9831 14.0508 40.6771 14.1875 40.3125 14.1875C39.6615 14.1875 39.1667 13.7057 38.8281 12.7422C38.5938 12.0911 38.2422 11.7656 37.7734 11.7656C37.2135 11.7656 36.543 12.1497 35.7617 12.918C34.9805 13.6732 34.4792 14.4609 34.2578 15.2812C34.0365 16.1016 33.9258 17.2279 33.9258 18.6602V21.5117C33.9258 23.2174 33.9453 24.2917 33.9844 24.7344C34.0365 25.1771 34.2253 25.5156 34.5508 25.75C34.8763 25.9844 35.4557 26.1016 36.2891 26.1016H36.8359V27H28.3398V26.1016H28.75C29.5312 26.1016 30.0846 25.9974 30.4102 25.7891C30.7487 25.5677 30.9505 25.2617 31.0156 24.8711C31.0807 24.4805 31.1133 23.3607 31.1133 21.5117V17C31.1133 15.2812 31.0872 14.207 31.0352 13.7773C30.9961 13.3346 30.8138 12.9961 30.4883 12.7617C30.1628 12.5143 29.5833 12.3906 28.75 12.3906H28.3398V11.5117C29.5638 11.3685 31.1654 10.9844 33.1445 10.3594C33.5221 11.388 33.7305 12.7487 33.7695 14.4414ZM52.6953 11.9023H47.8711V21.5703C47.8711 23.0547 47.9362 24.0573 48.0664 24.5781C48.1966 25.0859 48.4701 25.4961 48.8867 25.8086C49.3164 26.1211 49.7721 26.2773 50.2539 26.2773C51.1914 26.2773 52.0052 25.7435 52.6953 24.6758L53.3203 25.0469C52.9167 25.9062 52.3177 26.5573 51.5234 27C50.7422 27.4297 49.9479 27.6445 49.1406 27.6445C48.2031 27.6445 47.3763 27.3711 46.6602 26.8242C45.957 26.2643 45.5143 25.6133 45.332 24.8711C45.1628 24.1289 45.0781 22.8268 45.0781 20.9648V11.9023H42.7539V11.0039C43.8216 10.9779 44.7786 10.5286 45.625 9.65625C46.4714 8.78385 47.0117 7.5599 47.2461 5.98438H47.8711V11.0039H52.6953V11.9023ZM56.0742 2.19531C56.0742 1.63542 56.2695 1.15365 56.6602 0.75C57.0638 0.346354 57.5456 0.144531 58.1055 0.144531C58.6654 0.144531 59.1406 0.346354 59.5312 0.75C59.9219 1.15365 60.1172 1.63542 60.1172 2.19531C60.1172 2.76823 59.9219 3.25651 59.5312 3.66016C59.1406 4.0638 58.6654 4.26562 58.1055 4.26562C57.5456 4.26562 57.0638 4.0638 56.6602 3.66016C56.2695 3.25651 56.0742 2.76823 56.0742 2.19531ZM59.8438 10.3594V21.5117C59.8438 23.2174 59.8698 24.2917 59.9219 24.7344C59.974 25.1771 60.1628 25.5156 60.4883 25.75C60.8138 25.9844 61.3932 26.1016 62.2266 26.1016H62.6367V27H54.0234V26.1016H54.6875C55.612 26.1016 56.2109 25.9714 56.4844 25.7109C56.7708 25.4375 56.9336 25.1185 56.9727 24.7539C57.0247 24.3763 57.0508 23.2956 57.0508 21.5117V16.668C57.0508 14.793 56.9596 13.6471 56.7773 13.2305C56.6081 12.8138 56.3737 12.5534 56.0742 12.4492C55.7878 12.3451 55.2799 12.293 54.5508 12.293H54.0234V11.3945C56.3411 11.1602 58.138 10.8151 59.4141 10.3594H59.8438ZM73.9648 11.0039H80.4102V11.9023C79.2253 11.9284 77.6367 12.8138 75.6445 14.5586C75.0065 15.1055 74.0169 15.9062 72.6758 16.9609L78.3789 23.6406C79.2383 24.6432 79.9154 25.3008 80.4102 25.6133C80.9049 25.9128 81.4128 26.0755 81.9336 26.1016V27H73.9648V26.1016C75.293 26.0755 75.957 25.7891 75.957 25.2422C75.957 24.9948 75.5208 24.3633 74.6484 23.3477L70.5469 18.582L69.707 19.207V21.5117C69.707 23.2174 69.7266 24.2917 69.7656 24.7344C69.8177 25.1641 70.0065 25.5026 70.332 25.75C70.6576 25.9844 71.224 26.1016 72.0312 26.1016V27H63.9258V26.1016H64.5312C65.4688 26.1016 66.0742 25.9714 66.3477 25.7109C66.6341 25.4375 66.7969 25.1185 66.8359 24.7539C66.875 24.3763 66.8945 23.2956 66.8945 21.5117V5.47656C66.8945 3.92708 66.7448 2.9375 66.4453 2.50781C66.1589 2.07812 65.4557 1.86328 64.3359 1.86328V0.964844C65.1042 0.964844 66.0221 0.873698 67.0898 0.691406C68.1706 0.509115 68.9062 0.326823 69.2969 0.144531H69.707V18.1328L71.3867 16.9609C74.1081 15.0339 75.4688 13.6471 75.4688 12.8008C75.4688 12.2279 74.9674 11.9284 73.9648 11.9023V11.0039ZM99.375 24.0703H100.098C99.9805 26.2969 98.8867 27.4102 96.8164 27.4102C95.931 27.4102 95.2279 27.1758 94.707 26.707C94.1992 26.2383 93.8672 25.5417 93.7109 24.6172C92.4089 25.5417 91.2174 26.2383 90.1367 26.707C89.069 27.1758 88.112 27.4102 87.2656 27.4102C86.1849 27.4102 85.2539 27.0977 84.4727 26.4727C83.6914 25.8477 83.3008 25.0208 83.3008 23.9922C83.3008 22.651 83.9518 21.4792 85.2539 20.4766C86.569 19.474 88.3789 18.4974 90.6836 17.5469L93.7109 16.3164V15.5352C93.7109 14.4284 93.6393 13.6276 93.4961 13.1328C93.3529 12.638 92.9818 12.1953 92.3828 11.8047C91.7839 11.4141 90.9961 11.2188 90.0195 11.2188C88.0664 11.2188 86.9792 11.8698 86.7578 13.1719C86.5495 14.5 86.0026 15.1641 85.1172 15.1641C84.3229 15.1641 83.9258 14.7865 83.9258 14.0312C83.9258 13.2891 84.4531 12.4948 85.5078 11.6484C86.5625 10.7891 88.2031 10.3594 90.4297 10.3594C92.0833 10.3594 93.3659 10.6198 94.2773 11.1406C95.1888 11.6615 95.7878 12.2539 96.0742 12.918C96.3737 13.582 96.5234 14.5977 96.5234 15.9648V22.4297C96.5234 23.9401 96.6016 24.9102 96.7578 25.3398C96.9141 25.7695 97.2526 25.9844 97.7734 25.9844C98.6328 25.9844 99.1667 25.3464 99.375 24.0703ZM93.7109 17.2344L91.582 18.0938C88.2227 19.4609 86.543 21.1797 86.543 23.25C86.543 24.0703 86.7578 24.7344 87.1875 25.2422C87.6172 25.737 88.1771 25.9844 88.8672 25.9844C89.4792 25.9844 90.1888 25.7826 90.9961 25.3789C91.8034 24.9753 92.7083 24.3698 93.7109 23.5625V17.2344Z" fill="white"/>
</svg>
