<svg width="113" height="24" viewBox="0 0 113 24" fill="none" xmlns="http://www.w3.org/2000/svg">
<g clip-path="url(#clip0_521_317)">
<path d="M42.4157 23.4523C42.4157 23.6225 42.2464 23.7949 41.9404 23.8974C41.8384 23.9324 41.7017 23.9324 41.4978 23.9651C41.3285 24 41.1245 24 40.9206 24C39.5947 24 38.4729 23.4523 37.555 22.394C36.9778 21.7438 36.2638 20.583 35.4479 18.9072L34.9727 17.9493L34.4975 17.0263C34.1243 16.376 33.7836 15.8305 33.4429 15.4203C32.5923 14.3599 31.5399 13.8143 30.3486 13.8143H25.4532V23.5243C25.4532 23.7971 25.3165 23.9345 25.0452 23.9345H23.6521C23.3809 23.9345 23.2442 23.7971 23.2442 23.5243V0.445131C23.242 0.137467 23.3765 0 23.6478 0H30.7869C36.0577 0 38.6768 2.32385 38.6768 6.97372C38.6768 8.64951 38.2016 10.0155 37.249 11.1436C36.3984 12.1342 35.2765 12.8193 33.8487 13.1597C34.5626 13.4674 35.2765 14.1504 35.9557 15.1759C36.1944 15.5512 36.4657 16.064 36.7716 16.6466L37.1796 17.4321L37.5528 18.2177C38.1994 19.516 38.7767 20.4389 39.2193 20.9866C39.9332 21.8071 40.6819 22.2173 41.463 22.2522H41.973C42.2789 22.2522 42.4157 22.3897 42.4157 22.6624V23.4479V23.4523ZM30.5157 12.0338C32.2494 12.0338 33.6426 11.6236 34.6971 10.7683C35.819 9.84526 36.3962 8.6146 36.3962 7.04137C36.3962 5.46813 35.921 4.23748 34.9337 3.31448C33.9138 2.39149 32.486 1.91363 30.6849 1.91363H25.4488V12.0338H30.5157Z" fill="white"/>
<path d="M59.6192 0C59.9252 0 60.0619 0.137467 60.0619 0.410219V1.50341C60.0619 1.77616 59.9252 1.91363 59.6192 1.91363H51.5969V23.52C51.5969 23.7927 51.4602 23.9302 51.189 23.9302H49.7959C49.5246 23.9302 49.3879 23.7927 49.3879 23.52V1.91363H41.2615C40.9902 1.91363 40.8535 1.77616 40.8535 1.50341V0.410219C40.8535 0.137467 40.9881 0 41.2615 0H59.6214H59.6192Z" fill="white"/>
<path d="M65.8428 23.52C65.8428 23.7927 65.7061 23.9302 65.4349 23.9302H64.0418C63.7705 23.9302 63.6338 23.7927 63.6338 23.52V0.410219C63.6316 0.137467 63.7684 0 64.0396 0H65.4327C65.7039 0 65.8407 0.137467 65.8407 0.410219V23.52H65.8428Z" fill="white"/>
<path d="M78.9641 11.4185C80.7652 11.4185 82.2624 10.5981 83.521 8.99209C85.0161 7.04355 85.832 4.17202 85.934 0.410219C85.934 0.137467 86.0707 0 86.3419 0H87.7025C87.9737 0 88.1104 0.137467 88.1104 0.445131C88.1104 3.82944 87.4638 6.63333 86.138 8.82189C85.0834 10.4977 83.7922 11.6585 82.2624 12.3088C83.1131 12.6513 83.8942 13.3692 84.6081 14.4973C84.9141 14.9425 85.2201 15.488 85.526 16.1382L85.934 16.9935L86.3767 17.8489C87.0558 19.3196 87.6352 20.3451 88.0757 20.9255C88.7549 21.8136 89.5036 22.2588 90.2847 22.2588H90.7947C91.0659 22.2588 91.2026 22.3962 91.2026 22.669V23.5243C91.2026 23.7294 91.0659 23.8669 90.7947 23.9345C90.5234 23.9695 90.148 24.0022 89.7075 24.0022C88.4142 24.0022 87.2945 23.4545 86.3419 22.3264C85.7647 21.6434 85.0508 20.4128 84.2349 18.6344L83.7597 17.6438L83.2845 16.6859C82.9112 15.968 82.5358 15.4203 82.1973 14.9774C81.3467 13.8493 80.3268 13.3016 79.1377 13.3016H74.2423V23.5243C74.2423 23.7971 74.1056 23.9345 73.8344 23.9345H72.4413C72.17 23.9345 72.0333 23.7971 72.0333 23.5243V0.410219C72.029 0.137467 72.1657 0 72.4369 0H73.83C74.1013 0 74.238 0.137467 74.238 0.410219V11.4185H78.9641Z" fill="white"/>
<path d="M19.7729 23.52L11.1713 0.445131C11.0345 0.137467 10.8653 0 10.696 0H9.09895C8.9297 0 8.75827 0.137467 8.58902 0.445131L0.0198956 23.52C-0.0148235 23.6225 -0.0148235 23.7251 0.087164 23.8276C0.189151 23.8953 0.291139 23.9302 0.427846 23.9302H1.7884C2.0271 23.9302 2.19635 23.7927 2.26362 23.5549L4.16883 18.4097L5.42523 15.0079L5.8679 13.8122H12.2714C12.3604 13.8078 12.4385 13.7729 12.4862 13.666C12.5079 13.5678 12.5058 13.4783 12.4667 13.3736L12.0631 12.2957C11.9937 12.1124 11.8439 12.0338 11.6378 12.0338H6.5254L9.87797 2.97409L14.3307 15.0079L15.6435 18.5559L17.4945 23.5549C17.5617 23.7949 17.7332 23.9302 17.9697 23.9302H19.3628C19.4995 23.9302 19.6015 23.8953 19.7035 23.8276C19.8055 23.7251 19.8055 23.6225 19.7708 23.52H19.7729Z" fill="white"/>
<path d="M112.981 23.52L104.379 0.445131C104.242 0.137467 104.073 0 103.904 0H102.307C102.137 0 101.966 0.137467 101.797 0.445131L93.2299 23.5221C93.1951 23.6247 93.1951 23.7272 93.2971 23.8298C93.3991 23.8974 93.5011 23.9324 93.6378 23.9324H94.9984C95.2371 23.9324 95.4063 23.7949 95.4736 23.5571L97.3788 18.4119L98.6352 15.0101L99.0779 13.8143H105.481C105.57 13.81 105.648 13.7751 105.696 13.6682C105.718 13.57 105.716 13.4805 105.677 13.3758L105.273 12.2978C105.204 12.1146 105.054 12.036 104.848 12.036H99.7354L103.088 2.97627L107.541 15.0101L108.853 18.5581L110.704 23.5571C110.772 23.7971 110.943 23.9324 111.18 23.9324H112.573C112.709 23.9324 112.811 23.8974 112.913 23.8298C113.015 23.7272 113.015 23.6247 112.981 23.5221V23.52Z" fill="white"/>
</g>
<defs>
<clipPath id="clip0_521_317">
<rect width="113" height="24" fill="white"/>
</clipPath>
</defs>
</svg>
