<svg width="64" height="64" viewBox="0 0 64 64" fill="none" xmlns="http://www.w3.org/2000/svg">
<g clip-path="url(#clip0_883_499)">
<path d="M50.9394 50.955L50.9545 50.9399C55.4563 52.2357 60.0301 50.1497 62.3773 46.2974C64.8936 42.1589 64.4549 37.0862 61.2523 33.3411C60.894 32.9259 60.5257 32.5157 60.0686 31.9967C60.5943 31.3739 61.13 30.7729 61.6206 30.1434C65.1296 25.6416 64.6742 19.2479 60.5926 15.404C58.1082 13.0636 54.5154 12.1612 51.2006 12.7974C51.8367 9.4842 50.9344 5.89144 48.5939 3.4053C44.75 -0.674639 38.3564 -1.13169 33.8545 2.37737C33.225 2.8679 32.6257 3.4053 32.0012 3.92932C31.4822 3.47394 31.0721 3.10395 30.6569 2.74568C26.9118 -0.456997 21.8391 -0.895628 17.7005 1.62064C13.8466 3.96782 11.7622 8.54164 13.0581 13.0435L13.043 13.0585C8.54115 11.7627 3.96733 13.8487 1.62015 17.701C-0.896116 21.8379 -0.457485 26.9123 2.74519 30.6574C3.10346 31.0726 3.47346 31.4827 3.92883 32.0017C3.40314 32.6245 2.86741 33.2239 2.37688 33.855C-1.13385 38.3569 -0.676801 44.7505 3.40314 48.5944C5.8876 50.9349 9.48036 51.8356 12.7935 51.1994C12.1574 54.5126 13.0581 58.1053 15.3985 60.5898C19.2424 64.6697 25.6361 65.1268 30.1379 61.616C30.7674 61.1255 31.3684 60.5898 31.9912 60.0641C32.5102 60.5195 32.9203 60.8895 33.3355 61.2477C37.0807 64.4504 42.1551 64.889 46.2919 62.3728C50.1442 60.0239 52.2302 55.4518 50.9344 50.9499L50.9394 50.955ZM34.8808 57.6918C34.7402 57.5528 34.5995 57.4139 34.4623 57.2749C32.8751 55.7046 31.3198 54.1074 29.7461 52.527C27.9615 50.7323 27.9481 48.4303 29.5184 46.9571C30.903 45.6596 33.4979 45.7466 34.7351 47.0742C36.8831 49.5888 34.7134 51.5593 33.9684 51.8356C33.1547 52.1888 32.7061 53.4478 33.5264 54.2815L33.5716 54.3234C34.0956 54.8307 34.6782 54.9596 35.2491 54.9361C36.1029 54.8993 36.647 54.5326 37.4423 53.8278C39.617 51.8054 40.3319 47.3203 37.3335 44.481L37.3117 44.4592C34.561 41.7085 29.5402 41.5863 26.6841 44.4408C26.2588 44.866 25.8989 45.3298 25.6009 45.822C25.328 46.2355 25.0601 46.7662 24.8793 47.4091C24.2515 49.3997 24.4909 51.6029 25.6009 53.426L25.6042 53.4294C25.9023 53.9199 26.2605 54.382 26.6841 54.8055L29.1518 57.2733C26.659 60.7187 22.0065 61.3616 18.7402 58.7181C15.792 56.3274 15.3517 51.4924 18.0755 48.5592C18.104 48.5308 18.1274 48.5023 18.1576 48.4722C18.2111 48.4169 18.2647 48.3617 18.3166 48.3081L19.4868 47.1446C20.2134 46.418 20.2134 45.2394 19.4868 44.5111C18.7603 43.7845 17.5816 43.7845 16.8534 44.5111L15.6898 45.6813C15.6346 45.7332 15.581 45.7885 15.5258 45.8404C15.4956 45.8705 15.4672 45.894 15.4387 45.9224C12.5056 48.6463 7.67059 48.2076 5.27988 45.2578C2.63637 41.9915 3.27758 37.339 6.72301 34.8461L9.19073 37.3139C9.61262 37.7357 10.0764 38.0957 10.5669 38.3937L10.5702 38.397C12.3951 39.507 14.5983 39.7464 16.5872 39.1186C17.2317 38.9395 17.7608 38.6716 18.1743 38.397C18.6665 38.099 19.1302 37.7391 19.5555 37.3139C22.4116 34.4577 22.2877 29.4369 19.5371 26.6862L19.5153 26.6645C16.6759 23.6661 12.1908 24.3809 10.1684 26.5557C9.46362 27.3492 9.09698 27.895 9.06014 28.7488C9.03671 29.3197 9.16562 29.9023 9.67289 30.4263L9.71474 30.4715C10.5485 31.2902 11.8058 30.8415 12.1607 30.0296C12.4369 29.2846 14.4074 27.1148 16.922 29.2628C18.2496 30.5 18.3367 33.095 17.0392 34.4795C15.566 36.0499 13.264 36.0365 11.4693 34.2518C9.88886 32.6781 8.2917 31.1211 6.72134 29.5357C6.58238 29.3967 6.44342 29.2578 6.30447 29.1171C3.00301 25.7588 2.76193 21.3105 5.69842 18.3489C8.21469 15.8042 12.1791 15.7623 15.3717 18.1346C15.7535 18.4108 16.1218 18.7289 16.4734 19.0755C16.6006 19.2011 16.7278 19.3283 16.8551 19.4539C16.8601 19.4589 16.8618 19.4639 16.8668 19.4672C17.225 19.8255 17.6955 20.0047 18.1659 20.0047C18.6364 20.0047 19.1035 19.8255 19.4617 19.4689L19.4668 19.4639H19.4684V19.4622C20.18 18.744 20.1783 17.5855 19.4617 16.8706C19.3312 16.7384 19.2006 16.6078 19.07 16.4772C18.7234 16.1256 18.407 15.7556 18.1291 15.3756C15.7568 12.1846 15.797 8.21853 18.3434 5.70226C21.3033 2.7641 25.7532 3.00685 29.1116 6.30831C29.2506 6.44559 29.3879 6.58454 29.5268 6.72183C31.1123 8.29219 32.6692 9.88935 34.2429 11.4698C36.0276 13.2628 36.041 15.5664 34.4706 17.038C33.0861 18.3372 30.4895 18.2485 29.2539 16.9208C27.1076 14.4062 29.274 12.4358 30.0207 12.1595C30.8327 11.8063 31.283 10.5473 30.4643 9.71356L30.4191 9.67003C29.8951 9.16276 29.3125 9.03552 28.7416 9.05896C27.8878 9.09579 27.3437 9.46243 26.5485 10.1656C24.3754 12.1896 23.6589 16.6731 26.6573 19.5125C29.4013 22.2832 34.4438 22.4138 37.3067 19.5526C37.7319 19.1274 38.0918 18.6636 38.3899 18.1714C38.6627 17.7579 38.9323 17.2272 39.1097 16.5827C39.7376 14.5938 39.4981 12.3889 38.3882 10.5657L38.3848 10.5607C38.0868 10.0718 37.7286 9.60809 37.305 9.1862L34.8406 6.72183C37.3335 3.27639 41.986 2.63519 45.2523 5.27869C48.2021 7.66773 48.6408 12.5044 45.9152 15.4359C45.8868 15.4643 45.8633 15.4945 45.8349 15.5229C45.7813 15.5782 45.7277 15.6334 45.6741 15.6887L45.6708 15.6853L44.5039 16.8522C43.7773 17.5788 43.7773 18.7574 44.5039 19.484C45.2305 20.2106 46.4091 20.2106 47.1357 19.484L48.3026 18.3171L48.2992 18.3137C48.3545 18.2602 48.4097 18.2066 48.465 18.153C48.4934 18.1246 48.5236 18.1011 48.552 18.0727C51.4835 15.3488 56.3202 15.7874 58.7092 18.7356C61.3527 22.0019 60.7115 26.6544 57.2661 29.1473L54.8017 26.6829C54.3781 26.2593 53.9161 25.9011 53.4272 25.6031L53.4239 25.5997C51.599 24.4897 49.3958 24.2503 47.4069 24.8782C46.7624 25.0573 46.2333 25.3268 45.8181 25.598C45.3276 25.896 44.8622 26.256 44.4369 26.6812C41.5741 29.544 41.7064 34.5866 44.4754 37.3306C47.3148 40.329 51.7982 39.6125 53.8223 37.4394C54.5271 36.6442 54.8938 36.1018 54.9289 35.2463C54.9524 34.6754 54.8251 34.0928 54.3179 33.5687L54.2743 33.5235C53.4406 32.7049 52.1816 33.1535 51.8284 33.9672C51.5521 34.7139 49.5816 36.8819 47.0671 34.734C45.7394 33.4984 45.6524 30.9018 46.9499 29.5173C48.4215 27.9469 50.7251 27.9603 52.5181 29.7449C54.0985 31.3187 55.6957 32.8756 57.2661 34.4611C57.4033 34.6 57.5423 34.7373 57.6796 34.8763C60.981 38.2346 61.2238 42.6846 58.2856 45.6445C55.7694 48.1892 51.8049 48.2294 48.6123 45.8588C48.2306 45.5826 47.8623 45.2645 47.5107 44.9179C47.3784 44.7873 47.2479 44.6567 47.1173 44.5262C46.4024 43.8113 45.2439 43.8096 44.5257 44.5195L44.524 44.5211L44.519 44.5262C44.1624 44.8844 43.9832 45.3549 43.9832 45.822C43.9832 46.2891 44.1624 46.7628 44.5206 47.1211C44.5257 47.1261 44.5307 47.1278 44.534 47.1328C44.6613 47.2601 44.7868 47.3856 44.9124 47.5145C45.2589 47.8661 45.577 48.2361 45.8533 48.6161C48.2256 51.8071 48.1837 55.7715 45.639 58.2895C42.6791 61.226 38.2291 60.9849 34.8708 57.6834L34.8808 57.6918Z" fill="black"/>
<g clip-path="url(#clip1_883_499)">
<path d="M50.9394 50.955L50.9545 50.9399C55.4563 52.2357 60.0301 50.1497 62.3773 46.2974C64.8936 42.1589 64.4549 37.0862 61.2523 33.3411C60.894 32.9259 60.5257 32.5157 60.0686 31.9967C60.5943 31.3739 61.13 30.7729 61.6206 30.1434C65.1296 25.6416 64.6742 19.2479 60.5926 15.404C58.1082 13.0636 54.5154 12.1612 51.2006 12.7974C51.8367 9.4842 50.9344 5.89144 48.5939 3.4053C44.75 -0.674639 38.3564 -1.13169 33.8545 2.37737C33.225 2.8679 32.6257 3.4053 32.0012 3.92932C31.4822 3.47394 31.0721 3.10395 30.6569 2.74568C26.9118 -0.456997 21.8391 -0.895628 17.7005 1.62064C13.8466 3.96782 11.7622 8.54164 13.0581 13.0435L13.043 13.0585C8.54115 11.7627 3.96733 13.8487 1.62015 17.701C-0.896116 21.8379 -0.457485 26.9123 2.74519 30.6574C3.10346 31.0726 3.47346 31.4827 3.92883 32.0017C3.40314 32.6245 2.86741 33.2239 2.37688 33.855C-1.13385 38.3569 -0.676801 44.7505 3.40314 48.5944C5.8876 50.9349 9.48036 51.8356 12.7935 51.1994C12.1574 54.5126 13.0581 58.1053 15.3985 60.5898C19.2424 64.6697 25.6361 65.1268 30.1379 61.616C30.7674 61.1255 31.3684 60.5898 31.9912 60.0641C32.5102 60.5195 32.9203 60.8895 33.3355 61.2477C37.0807 64.4504 42.1551 64.889 46.2919 62.3728C50.1442 60.0239 52.2302 55.4518 50.9344 50.9499L50.9394 50.955ZM34.8808 57.6918C34.7402 57.5528 34.5995 57.4139 34.4623 57.2749C32.8751 55.7046 31.3198 54.1074 29.7461 52.527C27.9615 50.7323 27.9481 48.4303 29.5184 46.9571C30.903 45.6596 33.4979 45.7466 34.7351 47.0742C36.8831 49.5888 34.7134 51.5593 33.9684 51.8356C33.1547 52.1888 32.7061 53.4478 33.5264 54.2815L33.5716 54.3234C34.0956 54.8307 34.6782 54.9596 35.2491 54.9361C36.1029 54.8993 36.647 54.5326 37.4423 53.8278C39.617 51.8054 40.3319 47.3203 37.3335 44.481L37.3117 44.4592C34.561 41.7085 29.5402 41.5863 26.6841 44.4408C26.2588 44.866 25.8989 45.3298 25.6009 45.822C25.328 46.2355 25.0601 46.7662 24.8793 47.4091C24.2515 49.3997 24.4909 51.6029 25.6009 53.426L25.6042 53.4294C25.9023 53.9199 26.2605 54.382 26.6841 54.8055L29.1518 57.2733C26.659 60.7187 22.0065 61.3616 18.7402 58.7181C15.792 56.3274 15.3517 51.4924 18.0755 48.5592C18.104 48.5308 18.1274 48.5023 18.1576 48.4722C18.2111 48.4169 18.2647 48.3617 18.3166 48.3081L19.4868 47.1446C20.2134 46.418 20.2134 45.2394 19.4868 44.5111C18.7603 43.7845 17.5816 43.7845 16.8534 44.5111L15.6898 45.6813C15.6346 45.7332 15.581 45.7885 15.5258 45.8404C15.4956 45.8705 15.4672 45.894 15.4387 45.9224C12.5056 48.6463 7.67059 48.2076 5.27988 45.2578C2.63637 41.9915 3.27758 37.339 6.72301 34.8461L9.19073 37.3139C9.61262 37.7357 10.0764 38.0957 10.5669 38.3937L10.5702 38.397C12.3951 39.507 14.5983 39.7464 16.5872 39.1186C17.2317 38.9395 17.7608 38.6716 18.1743 38.397C18.6665 38.099 19.1302 37.7391 19.5555 37.3139C22.4116 34.4577 22.2877 29.4369 19.5371 26.6862L19.5153 26.6645C16.6759 23.6661 12.1908 24.3809 10.1684 26.5557C9.46362 27.3492 9.09698 27.895 9.06014 28.7488C9.03671 29.3197 9.16562 29.9023 9.67289 30.4263L9.71474 30.4715C10.5485 31.2902 11.8058 30.8415 12.1607 30.0296C12.4369 29.2846 14.4074 27.1148 16.922 29.2628C18.2496 30.5 18.3367 33.095 17.0392 34.4795C15.566 36.0499 13.264 36.0365 11.4693 34.2518C9.88886 32.6781 8.2917 31.1211 6.72134 29.5357C6.58238 29.3967 6.44342 29.2578 6.30447 29.1171C3.00301 25.7588 2.76193 21.3105 5.69842 18.3489C8.21469 15.8042 12.1791 15.7623 15.3717 18.1346C15.7535 18.4108 16.1218 18.7289 16.4734 19.0755C16.6006 19.2011 16.7278 19.3283 16.8551 19.4539C16.8601 19.4589 16.8618 19.4639 16.8668 19.4672C17.225 19.8255 17.6955 20.0047 18.1659 20.0047C18.6364 20.0047 19.1035 19.8255 19.4617 19.4689L19.4668 19.4639H19.4684V19.4622C20.18 18.744 20.1783 17.5855 19.4617 16.8706C19.3312 16.7384 19.2006 16.6078 19.07 16.4772C18.7234 16.1256 18.407 15.7556 18.1291 15.3756C15.7568 12.1846 15.797 8.21853 18.3434 5.70226C21.3033 2.7641 25.7532 3.00685 29.1116 6.30831C29.2506 6.44559 29.3879 6.58454 29.5268 6.72183C31.1123 8.29219 32.6692 9.88935 34.2429 11.4698C36.0276 13.2628 36.041 15.5664 34.4706 17.038C33.0861 18.3372 30.4895 18.2485 29.2539 16.9208C27.1076 14.4062 29.274 12.4358 30.0207 12.1595C30.8327 11.8063 31.283 10.5473 30.4643 9.71356L30.4191 9.67003C29.8951 9.16276 29.3125 9.03552 28.7416 9.05896C27.8878 9.09579 27.3437 9.46243 26.5485 10.1656C24.3754 12.1896 23.6589 16.6731 26.6573 19.5125C29.4013 22.2832 34.4438 22.4138 37.3067 19.5526C37.7319 19.1274 38.0918 18.6636 38.3899 18.1714C38.6627 17.7579 38.9323 17.2272 39.1097 16.5827C39.7376 14.5938 39.4981 12.3889 38.3882 10.5657L38.3848 10.5607C38.0868 10.0718 37.7286 9.60809 37.305 9.1862L34.8406 6.72183C37.3335 3.27639 41.986 2.63519 45.2523 5.27869C48.2021 7.66773 48.6408 12.5044 45.9152 15.4359C45.8868 15.4643 45.8633 15.4945 45.8349 15.5229C45.7813 15.5782 45.7277 15.6334 45.6741 15.6887L45.6708 15.6853L44.5039 16.8522C43.7773 17.5788 43.7773 18.7574 44.5039 19.484C45.2305 20.2106 46.4091 20.2106 47.1357 19.484L48.3026 18.3171L48.2992 18.3137C48.3545 18.2602 48.4097 18.2066 48.465 18.153C48.4934 18.1246 48.5236 18.1011 48.552 18.0727C51.4835 15.3488 56.3202 15.7874 58.7092 18.7356C61.3527 22.0019 60.7115 26.6544 57.2661 29.1473L54.8017 26.6829C54.3781 26.2593 53.9161 25.9011 53.4272 25.6031L53.4239 25.5997C51.599 24.4897 49.3958 24.2503 47.4069 24.8782C46.7624 25.0573 46.2333 25.3268 45.8181 25.598C45.3276 25.896 44.8622 26.256 44.4369 26.6812C41.5741 29.544 41.7064 34.5866 44.4754 37.3306C47.3148 40.329 51.7982 39.6125 53.8223 37.4394C54.5271 36.6442 54.8938 36.1018 54.9289 35.2463C54.9524 34.6754 54.8251 34.0928 54.3179 33.5687L54.2743 33.5235C53.4406 32.7049 52.1816 33.1535 51.8284 33.9672C51.5521 34.7139 49.5816 36.8819 47.0671 34.734C45.7394 33.4984 45.6524 30.9018 46.9499 29.5173C48.4215 27.9469 50.7251 27.9603 52.5181 29.7449C54.0985 31.3187 55.6957 32.8756 57.2661 34.4611C57.4033 34.6 57.5423 34.7373 57.6796 34.8763C60.981 38.2346 61.2238 42.6846 58.2856 45.6445C55.7694 48.1892 51.8049 48.2294 48.6123 45.8588C48.2306 45.5826 47.8623 45.2645 47.5107 44.9179C47.3784 44.7873 47.2479 44.6567 47.1173 44.5262C46.4024 43.8113 45.2439 43.8096 44.5257 44.5195L44.524 44.5211L44.519 44.5262C44.1624 44.8844 43.9832 45.3549 43.9832 45.822C43.9832 46.2891 44.1624 46.7628 44.5206 47.1211C44.5257 47.1261 44.5307 47.1278 44.534 47.1328C44.6613 47.2601 44.7868 47.3856 44.9124 47.5145C45.2589 47.8661 45.577 48.2361 45.8533 48.6161C48.2256 51.8071 48.1837 55.7715 45.639 58.2895C42.6791 61.226 38.2291 60.9849 34.8708 57.6834L34.8808 57.6918Z" fill="black"/>
</g>
</g>
<defs>
<clipPath id="clip0_883_499">
<rect width="64" height="64" fill="white"/>
</clipPath>
<clipPath id="clip1_883_499">
<rect width="64" height="64" fill="white"/>
</clipPath>
</defs>
</svg>
