<svg width="160" height="29" viewBox="0 0 160 29" fill="none" xmlns="http://www.w3.org/2000/svg">
<g clip-path="url(#clip0_907_691)">
<path d="M5.99197 23.0811L5.99912 23.0881C5.40348 25.1285 6.36128 27.1994 8.13153 28.2643C10.0328 29.4043 12.363 29.2069 14.0832 27.7542C14.2738 27.592 14.4621 27.4251 14.7003 27.2182C14.9862 27.4557 15.2626 27.7001 15.5509 27.9211C17.619 29.5101 20.5543 29.3056 22.3198 27.4557C23.3944 26.3297 23.8089 24.7007 23.5159 23.201C25.0383 23.4901 26.6871 23.0811 27.8284 22.021C29.7034 20.2791 29.9107 17.3808 28.3001 15.3427C28.0738 15.0583 27.8284 14.7856 27.5877 14.5036C27.7974 14.2685 27.9665 14.0828 28.1309 13.8947C29.601 12.1976 29.8035 9.89864 28.648 8.02282C27.5686 6.27628 25.4696 5.33132 23.4015 5.91898L23.3944 5.91193C23.99 3.87156 23.0322 1.80064 21.2619 0.735792C19.3606 -0.404274 17.0305 -0.204469 15.3103 1.24588C15.1197 1.40808 14.9314 1.57497 14.6932 1.78183C14.4073 1.54442 14.1309 1.29995 13.8426 1.07899C11.7745 -0.512405 8.83916 -0.305547 7.07367 1.54442C5.99912 2.67038 5.58455 4.29938 5.87761 5.7991C4.35514 5.50997 2.70639 5.91898 1.56513 6.97913C-0.309958 8.72096 -0.517243 11.617 1.09338 13.6573C1.31735 13.9418 1.56513 14.2144 1.80578 14.4965C1.59611 14.7316 1.42694 14.9173 1.26255 15.1053C-0.207507 16.8025 -0.410027 19.1014 0.745526 20.9773C1.82484 22.7238 3.92389 23.6688 5.99197 23.0811ZM2.897 15.8058C2.96133 15.7424 3.02566 15.6789 3.08761 15.6154C3.80953 14.8961 4.54098 14.1909 5.26767 13.4787C6.09204 12.6701 7.14991 12.663 7.82656 13.3753C8.42221 14.0029 8.38171 15.1782 7.77176 15.74C6.61621 16.7132 5.71321 15.7306 5.58455 15.3921C5.42254 15.0231 4.84357 14.8209 4.46236 15.1923L4.4433 15.2135C4.2098 15.4509 4.15024 15.7141 4.16215 15.9727C4.17883 16.3606 4.34799 16.605 4.67202 16.967C5.60123 17.952 7.65978 18.2764 8.96544 16.9177L8.97497 16.9083C10.2377 15.6624 10.2949 13.387 8.98212 12.0918C8.78675 11.899 8.5747 11.7368 8.34835 11.6005C8.15774 11.4759 7.91472 11.356 7.61928 11.2738C6.70437 10.9893 5.69415 11.0975 4.85548 11.6005C4.63152 11.7368 4.41709 11.899 4.2241 12.0918L3.08999 13.2107C1.50795 12.0824 1.21251 9.97386 2.42763 8.49295C3.526 7.15777 5.74657 6.95797 7.09273 8.19206C7.10464 8.20381 7.11894 8.21557 7.13323 8.22967C7.15944 8.25318 7.18327 8.27904 7.20948 8.30254L7.74317 8.83379C8.07674 9.16288 8.61758 9.16288 8.95353 8.83379C9.28709 8.5047 9.28709 7.9711 8.95353 7.63966L8.41506 7.11311C8.39124 7.08961 8.36503 7.06375 8.3412 7.03789C8.32691 7.02379 8.31738 7.01203 8.30308 6.99793C7.05222 5.66981 7.25474 3.479 8.60805 2.39535C10.1091 1.19652 12.2439 1.488 13.3899 3.04883L12.2558 4.16774C12.0628 4.35815 11.896 4.56971 11.7602 4.79067C11.2503 5.6181 11.1407 6.61712 11.429 7.51978C11.5124 7.81126 11.6339 8.05102 11.7602 8.23907C11.8984 8.46239 12.0628 8.67159 12.2582 8.86435C13.5686 10.1572 15.8749 10.1031 17.1401 8.8573L17.1496 8.84789C18.5267 7.56209 18.1979 5.52877 17.1996 4.61202C16.8351 4.29233 16.5849 4.12543 16.1918 4.10898C15.9297 4.09723 15.6629 4.15599 15.4222 4.38636L15.4008 4.40516C15.0243 4.78362 15.2316 5.35247 15.6033 5.51232C15.9464 5.6369 16.9423 6.53015 15.9559 7.67022C15.3889 8.27198 14.1952 8.31194 13.5591 7.72428C12.8371 7.0567 12.8443 6.01301 13.6639 5.19968C14.3858 4.48273 15.1006 3.76108 15.8297 3.04883C15.894 2.98537 15.9583 2.9219 16.0226 2.86078C17.5642 1.36577 19.6084 1.25529 20.9689 2.58576C22.1387 3.72582 22.1578 5.52172 21.0666 6.96972C20.9403 7.14132 20.7926 7.31057 20.6353 7.46806C20.5781 7.52683 20.5186 7.58324 20.4614 7.63966C20.4614 7.63966 20.4566 7.64201 20.4543 7.64436C20.2899 7.80656 20.2065 8.02046 20.2065 8.23437C20.2065 8.44828 20.2899 8.65984 20.4519 8.82204L20.4543 8.82439C20.7831 9.14643 21.3167 9.14643 21.6455 8.82204C21.7051 8.76327 21.7671 8.7045 21.8266 8.64339C21.9886 8.48589 22.1578 8.3425 22.3317 8.21792C23.797 7.14367 25.6173 7.16248 26.7752 8.3143C28.1238 9.65652 28.0142 11.671 26.4965 13.1943C26.4345 13.2577 26.3702 13.3188 26.3059 13.3823C25.584 14.0993 24.8525 14.8068 24.1258 15.519C23.3014 16.3277 22.2436 16.3347 21.5693 15.6225C20.9737 14.9948 21.0142 13.8195 21.6217 13.2577C22.7773 12.2845 23.6827 13.2671 23.8089 13.6056C23.9709 13.9747 24.5499 14.1768 24.9311 13.8054L24.9502 13.7843C25.1837 13.5468 25.2409 13.2836 25.2313 13.0227C25.2147 12.6348 25.0455 12.3903 24.7238 12.0283C23.7946 11.0434 21.7361 10.719 20.4304 12.0777C19.1581 13.3212 19.0986 15.606 20.4138 16.9036C20.6091 17.0963 20.8212 17.2585 21.0475 17.3949C21.2381 17.5171 21.4811 17.6393 21.7766 17.7216C22.6915 18.006 23.7017 17.8979 24.5404 17.3949C24.7643 17.2609 24.9764 17.0963 25.1718 16.9059L26.3035 15.7894C27.8855 16.9177 28.181 19.0262 26.9659 20.5071C25.8675 21.8447 23.6469 22.0421 22.3008 20.808C22.2865 20.7939 22.2745 20.7845 22.2603 20.7704C22.234 20.7469 22.2102 20.721 22.184 20.6975L21.6479 20.1686C21.3144 19.8395 20.7735 19.8395 20.44 20.1686C20.1064 20.4977 20.1064 21.0313 20.44 21.3604L20.976 21.8893C20.9999 21.9128 21.0261 21.9387 21.0499 21.9622C21.0642 21.9763 21.0737 21.988 21.088 22.0021C22.3389 23.3303 22.1387 25.5211 20.7831 26.6047C19.282 27.8036 17.1472 27.5121 16.0012 25.9512L17.1329 24.8347C17.3283 24.6419 17.4927 24.4327 17.6285 24.2118C18.1384 23.3843 18.248 22.3877 17.9597 21.485C17.8787 21.1935 17.7548 20.9538 17.6285 20.7657C17.4903 20.5424 17.3259 20.3332 17.1306 20.1404C15.8154 18.8429 13.4995 18.904 12.2391 20.1569C10.862 21.4427 11.1908 23.476 12.1891 24.3928C12.5536 24.7124 12.8038 24.877 13.1969 24.8934C13.459 24.9052 13.7258 24.8464 13.9689 24.6161L13.9903 24.5973C14.3668 24.2188 14.1595 23.65 13.7878 23.4901C13.4447 23.3655 12.4488 22.4723 13.4352 21.3322C14.0022 20.7304 15.1959 20.6905 15.832 21.2805C16.554 21.9481 16.5468 22.9918 15.7272 23.8027C15.0053 24.5197 14.2881 25.2437 13.5614 25.9536C13.4971 26.0147 13.4352 26.0782 13.3708 26.1416C11.8293 27.6367 9.78505 27.7471 8.42459 26.4167C7.25474 25.2766 7.23807 23.4807 8.32691 22.0327C8.45318 21.8611 8.6009 21.6919 8.75815 21.5344C8.81772 21.4756 8.87728 21.4145 8.93923 21.3557C9.26803 21.0313 9.26803 20.5071 8.94161 20.1804H8.93923C8.77483 20.0182 8.55802 19.9383 8.34359 19.9383C8.12915 19.9383 7.91234 20.0182 7.74556 20.1827C7.74556 20.1827 7.74317 20.1874 7.74079 20.1898C7.68361 20.2462 7.62404 20.305 7.56686 20.3614C7.40485 20.5189 7.23568 20.6623 7.06175 20.7869C5.59647 21.8611 3.77617 21.8423 2.61824 20.6905C1.26969 19.3483 1.37929 17.3337 2.897 15.8105V15.8058Z" fill="white"/>
<path d="M82.4993 26.8071C82.4993 26.9904 82.3135 27.1761 81.9776 27.2866C81.8656 27.3242 81.7155 27.3242 81.4915 27.3595C81.3057 27.3971 81.0817 27.3971 80.8577 27.3971C79.402 27.3971 78.1702 26.8071 77.1624 25.667C76.5286 24.9665 75.7447 23.7159 74.8489 21.9106L74.3271 20.8787L73.8053 19.8844C73.3955 19.1839 73.0214 18.5962 72.6474 18.1543C71.7134 17.0119 70.5578 16.4242 69.2498 16.4242H63.8747V26.8846C63.8747 27.1785 63.7246 27.3265 63.4268 27.3265H61.8971C61.5993 27.3265 61.4492 27.1785 61.4492 26.8846V2.02177C61.4492 1.69033 61.5993 1.54224 61.8971 1.54224H69.7358C75.5231 1.54224 78.3965 4.04568 78.3965 9.05492C78.3965 10.8602 77.8747 12.3317 76.8288 13.547C75.8948 14.6142 74.663 15.3523 73.0953 15.719C73.8792 16.0505 74.663 16.7862 75.4088 17.891C75.6709 18.2953 75.9687 18.8477 76.3046 19.4754L76.7526 20.3216L77.1624 21.1678C77.8724 22.5665 78.5061 23.5608 78.9922 24.1508C79.7761 25.0347 80.598 25.4766 81.4558 25.5142H82.0157C82.3516 25.5142 82.5017 25.6623 82.5017 25.9561V26.8023L82.4993 26.8071ZM69.4333 14.5061C71.3369 14.5061 72.8666 14.0642 74.0245 13.1427C75.2563 12.1484 75.8901 10.8226 75.8901 9.12779C75.8901 7.43297 75.3683 6.1072 74.2842 5.11288C73.1644 4.11855 71.5966 3.60376 69.6191 3.60376H63.8699V14.5061H69.4333Z" fill="white"/>
<path d="M101.389 1.54224C101.725 1.54224 101.875 1.69033 101.875 1.98416V3.16184C101.875 3.45567 101.725 3.60376 101.389 3.60376H92.5804V26.8799C92.5804 27.1737 92.4302 27.3218 92.1324 27.3218H90.6028C90.305 27.3218 90.1549 27.1737 90.1549 26.8799V3.60376H81.2321C80.9343 3.60376 80.7842 3.45567 80.7842 3.16184V1.98416C80.7842 1.69033 80.9343 1.54224 81.2321 1.54224H101.391H101.389Z" fill="white"/>
<path d="M108.219 26.8799C108.219 27.1737 108.069 27.3218 107.771 27.3218H106.242C105.944 27.3218 105.794 27.1737 105.794 26.8799V1.98416C105.794 1.69033 105.944 1.54224 106.242 1.54224H107.771C108.069 1.54224 108.219 1.69033 108.219 1.98416V26.8799Z" fill="white"/>
<path d="M122.63 13.8432C124.607 13.8432 126.251 12.9594 127.633 11.2293C129.275 9.13014 130.17 6.03668 130.282 1.98416C130.282 1.69033 130.432 1.54224 130.73 1.54224H132.224C132.522 1.54224 132.672 1.69033 132.672 2.02177C132.672 5.66763 131.962 8.68822 130.506 11.0459C129.348 12.8512 127.931 14.1018 126.251 14.8023C127.185 15.1713 128.043 15.9447 128.827 17.16C129.163 17.6395 129.498 18.2272 129.834 18.9277L130.282 19.8491L130.768 20.7706C131.514 22.3549 132.15 23.4597 132.634 24.085C133.38 25.0417 134.202 25.5212 135.059 25.5212H135.619C135.917 25.5212 136.067 25.6693 136.067 25.9632V26.8846C136.067 27.1056 135.917 27.2537 135.619 27.3265C135.322 27.3642 134.909 27.3994 134.426 27.3994C133.006 27.3994 131.776 26.8094 130.73 25.5941C130.097 24.8584 129.313 23.5326 128.417 21.6168L127.895 20.5496L127.373 19.5177C126.963 18.7443 126.551 18.1543 126.18 17.6771C125.246 16.4618 124.126 15.8718 122.82 15.8718H117.445V26.8846C117.445 27.1785 117.295 27.3265 116.997 27.3265H115.467C115.17 27.3265 115.02 27.1785 115.02 26.8846V1.98416C115.02 1.69033 115.17 1.54224 115.467 1.54224H116.997C117.295 1.54224 117.445 1.69033 117.445 1.98416V13.8432H122.634H122.63Z" fill="white"/>
<path d="M57.6369 26.8799L48.1924 2.02177C48.0423 1.69033 47.8564 1.54224 47.6706 1.54224H45.917C45.7312 1.54224 45.5429 1.69033 45.3571 2.02177L35.9507 26.8823C35.9125 26.9928 35.9125 27.1032 36.0245 27.2137C36.1365 27.2866 36.2485 27.3242 36.3986 27.3242H37.8925C38.1545 27.3242 38.3404 27.1761 38.4142 26.9199L40.5062 21.377L41.8857 17.7124L42.3717 16.4242H49.4027C49.5004 16.4195 49.5862 16.3819 49.6386 16.2667C49.6624 16.1609 49.66 16.0646 49.6172 15.9517L49.174 14.7905C49.0977 14.5931 48.9333 14.5084 48.707 14.5084H43.0936L46.7747 4.74853L51.6638 17.7124L53.1053 21.5345L55.1376 26.9199C55.2115 27.1785 55.3997 27.3242 55.6594 27.3242H57.189C57.3391 27.3242 57.4511 27.2866 57.5631 27.2137C57.6751 27.1032 57.6751 26.9928 57.6369 26.8823V26.8799Z" fill="white"/>
<path d="M159.979 26.8798L150.534 2.01933C150.384 1.68789 150.198 1.53979 150.012 1.53979H148.259C148.073 1.53979 147.885 1.68789 147.699 2.01933L138.292 26.8798C138.254 26.9903 138.254 27.1008 138.366 27.2113C138.478 27.2841 138.59 27.3218 138.74 27.3218H140.234C140.496 27.3218 140.682 27.1737 140.756 26.9174L142.848 21.3746L144.227 17.7099L144.714 16.4218H151.745C151.842 16.4171 151.928 16.3795 151.98 16.2643C152.004 16.1585 152.002 16.0621 151.959 15.9493L151.516 14.7881C151.44 14.5906 151.275 14.506 151.049 14.506H145.435L149.117 4.74608L154.006 17.7099L155.447 21.5321L157.479 26.9174C157.553 27.176 157.741 27.3218 158.001 27.3218H159.531C159.681 27.3218 159.793 27.2841 159.905 27.2113C160.017 27.1008 160.017 26.9903 159.979 26.8798Z" fill="white"/>
</g>
<defs>
<clipPath id="clip0_907_691">
<rect width="160" height="29" fill="white"/>
</clipPath>
</defs>
</svg>
